HIERARCHY
ROOT Hips
{
     OFFSET 1.88212 96.90440 -13.34250
     CHANNELS 6 Xposition Yposition Zposition Zrotation Xrotation Yrotation
     JOINT Spine
     {
          OFFSET 0.00000 11.89050 0.00000
          CHANNELS 3 Zrotation Xrotation Yrotation
          JOINT Spine1
          {
               OFFSET -0.00000 25.65740 0.12766
               CHANNELS 3 Zrotation Xrotation Yrotation
               JOINT HEad
               {
                    OFFSET 0.00000 8.73416 0.01134
                    CHANNELS 3 Zrotation Xrotation Yrotation
                    End Site
                    {
                         OFFSET -0.29000 12.77420 2.51395
                    }
               }
               JOINT LeftShoulder1
               {
                    OFFSET 8.99000 -0.36225 -0.22000
                    CHANNELS 3 Zrotation Xrotation Yrotation
                    JOINT LeftArm
                    {
                         OFFSET 10.28270 -0.00338 0.32212
                         CHANNELS 3 Zrotation Xrotation Yrotation
                         JOINT LeftForeArm
                         {
                              OFFSET 32.76690 0.09914 -1.42434
                              CHANNELS 3 Zrotation Xrotation Yrotation
                              JOINT LeftHand
                              {
                                   OFFSET 27.56430 0.08536 1.02216
                                   CHANNELS 3 Zrotation Xrotation Yrotation
                                   End Site
                                   {
                                        OFFSET 16.74430 -0.60000 1.50291
                                   }
                              }
                         }
                    }
               }
               JOINT RightShoulder
               {
                    OFFSET -8.99000 -0.36225 -0.22000
                    CHANNELS 3 Zrotation Xrotation Yrotation
                    JOINT RightArm
                    {
                         OFFSET -10.28270 -0.00338 0.32212
                         CHANNELS 3 Zrotation Xrotation Yrotation
                         JOINT RightForeArm
                         {
                              OFFSET -32.89710 0.09914 -1.42434
                              CHANNELS 3 Zrotation Xrotation Yrotation
                              JOINT RightHand
                              {
                                   OFFSET -27.49210 0.08536 1.02216
                                   CHANNELS 3 Zrotation Xrotation Yrotation
                                   End Site
                                   {
                                        OFFSET -16.63120 -0.60000 1.50291
                                   }
                              }
                         }
                    }
               }
          }
     }
     JOINT LeftUpLeg
     {
          OFFSET 8.94580 -8.66707 0.10165
          CHANNELS 3 Zrotation Xrotation Yrotation
          JOINT LeftLeg
          {
               OFFSET 0.00000 -44.42270 1.37270
               CHANNELS 3 Zrotation Xrotation Yrotation
               JOINT LeftFoot
               {
                    OFFSET -0.25355 -42.09240 -1.46059
                    CHANNELS 3 Zrotation Xrotation Yrotation
                    JOINT LeftToes
                    {
                         OFFSET -0.04000 -4.41509 8.49910
                         CHANNELS 3 Zrotation Xrotation Yrotation
                         End Site
                         {
                              OFFSET 0.08000 -0.04745 9.77979
                         }
                    }
               }
          }
     }
     JOINT RightUpLeg
     {
          OFFSET -8.94580 -8.66707 0.10165
          CHANNELS 3 Zrotation Xrotation Yrotation
          JOINT RightLeg
          {
               OFFSET 0.00000 -44.42270 1.37270
               CHANNELS 3 Zrotation Xrotation Yrotation
               JOINT RightFoot
               {
                    OFFSET 0.25355 -42.09240 -1.46059
                    CHANNELS 3 Zrotation Xrotation Yrotation
                    JOINT RightToes
                    {
                         OFFSET 0.04000 -4.41509 8.49910
                         CHANNELS 3 Zrotation Xrotation Yrotation
                         End Site
                         {
                              OFFSET -0.08000 -0.13745 9.77979
                         }
                    }
               }
          }
     }
}
MOTION
Frames: 12
Frame Time: 0.01667
21.92620 90.69508 -33.44746 10.02624 2.19952 105.92255 -9.37100 21.44088 4.96115 0.00233 0.00562 -0.01081 -13.20325 29.00759 6.98049 0.36006 6.68622 -0.65176 -156.32986 -67.92124 -124.01476 -42.54603 69.82739 -79.03571 17.92815 10.96324 -8.16250 14.77628 7.38132 -0.28874 77.59052 4.08327 68.59659 4.36358 26.51250 92.70620 15.67831 13.03168 9.88513 18.01325 -5.83138 -16.80755 -17.60535 15.57638 54.95377 69.63738 -0.01101 0.00831 -76.97668 -4.94373 -41.97242 -32.14062 9.95032 14.76694 41.00724 -12.27569 -47.12363 -30.11675 0.02111 -0.00557 9.49694 -14.34833 20.04885 
21.93855 90.63322 -34.08822 10.42977 2.54616 105.97155 -10.08883 21.99319 5.17373 0.00243 0.00599 -0.01023 -12.49710 30.91359 4.81337 0.52716 7.01268 -1.05446 -155.46895 -67.97241 -124.22958 -40.16775 68.96059 -80.77436 18.03094 10.97291 -7.95783 15.46582 7.57194 -0.91050 77.79114 3.98653 68.76260 3.99787 26.53654 93.29847 15.71651 13.19867 10.02562 17.58511 -4.66730 -20.14349 -18.40829 13.18192 58.45856 72.02161 -0.00714 0.01222 -77.99094 -5.55206 -43.24382 -33.71711 12.42022 16.70871 41.86012 -16.56095 -47.80455 -28.17149 0.02949 -0.00769 6.39055 -14.32842 21.59367 
21.91613 90.54246 -34.78568 10.79986 2.89159 106.01463 -10.74472 22.51906 5.26996 0.00242 0.00639 -0.00949 -11.86453 32.43063 3.07920 0.69850 7.31946 -1.36276 -154.46651 -67.98161 -124.16666 -37.80536 68.13163 -82.47404 17.50311 10.29780 -7.92608 16.07887 7.76748 -1.40307 78.01031 3.77167 68.92937 3.62991 26.57517 93.93771 15.84583 13.04459 9.92241 17.17701 -3.68546 -23.05952 -19.23018 11.12928 61.62888 74.29761 -0.00148 0.01302 -78.99100 -6.49946 -44.49181 -34.90193 14.41251 18.42497 42.25527 -19.88559 -48.34091 -25.69225 0.02705 -0.00976 3.06767 -14.32331 22.75855 
21.86647 90.46466 -35.51577 11.13466 3.22222 106.04157 -11.33594 23.01732 5.27143 0.00235 0.00679 -0.00862 -11.33634 33.58039 1.76826 0.86123 7.60531 -1.57275 -153.26938 -67.94927 -123.80227 -35.52203 67.30514 -84.07333 17.47899 10.17857 -7.67687 16.63025 7.97010 -1.76387 78.24125 3.46070 69.09833 3.26938 26.62514 94.59830 15.89031 13.00728 9.98774 16.81701 -2.88569 -25.54977 -20.11953 9.38443 64.46435 76.44101 0.00306 0.01327 -79.92853 -7.66687 -45.77415 -35.73848 15.94741 19.89161 42.16537 -22.27242 -48.83308 -22.66813 0.02219 -0.01236 -0.40006 -14.25718 23.62368 
21.79393 90.42282 -36.26037 11.43596 3.52008 106.04384 -11.85655 23.48760 5.20090 0.00226 0.00718 -0.00763 -10.92939 34.38775 0.86424 1.00716 7.86873 -1.68268 -151.88319 -67.87508 -123.15678 -33.37032 66.48685 -85.54562 17.08629 9.69166 -7.55312 17.13494 8.17979 -1.99361 78.47817 3.07875 69.27259 2.90908 26.68660 95.26106 15.99405 12.81621 9.92153 16.52112 -2.25817 -27.61486 -21.07482 7.92313 66.96400 78.43355 0.00615 0.01282 -80.86459 -8.98793 -47.04151 -36.27202 17.04872 21.10342 41.62589 -23.78418 -49.33469 -19.14839 0.01485 -0.01506 -3.94799 -14.08859 24.24816 
21.71590 90.42585 -37.01056 11.71474 3.76768 106.02493 -12.29335 23.93702 5.07062 0.00221 0.00750 -0.00662 -10.64878 34.88110 0.34360 1.13574 8.10887 -1.69387 -150.35909 -67.76082 -122.29200 -31.40085 65.68003 -86.86752 16.99932 9.55906 -7.32821 17.60330 8.39564 -2.10185 78.71807 2.65496 69.45602 2.52736 26.75914 95.92641 16.05736 12.74283 9.95570 16.29891 -1.77324 -29.27281 -22.07705 6.72096 69.12820 80.26255 0.00797 0.01183 -81.77564 -10.38856 -48.29080 -36.57118 17.58543 22.07001 41.11751 -22.93445 -48.48457 -14.23314 -0.07023 0.00221 -8.04785 -14.32039 22.90254 
21.63930 90.47183 -37.76157 11.97484 3.95473 105.98665 -12.63961 24.36472 4.89357 0.00222 0.00772 -0.00564 -10.49015 35.09069 0.17489 1.24784 8.32532 -1.61267 -148.78867 -67.61060 -121.30553 -29.65536 64.90860 -88.03308 16.70532 9.24122 -7.19792 18.03831 8.61602 -2.10082 78.96155 2.21457 69.65322 2.09814 26.84092 96.59989 16.14918 12.61403 9.91200 16.14921 -1.40135 -30.54175 -23.10320 5.75724 70.96053 81.92373 0.00882 0.01053 -82.66816 -11.82201 -49.50004 -36.67351 17.63067 22.80436 40.22732 -22.04268 -47.97834 -9.38108 -0.05820 0.00529 -12.11674 -14.10082 21.82640 
21.55371 90.56226 -38.52256 12.21618 4.07736 105.93066 -12.88877 24.77076 4.68021 0.00229 0.00764 -0.00475 -10.51968 33.96988 1.50044 1.34252 8.51430 -1.44507 -147.28654 -67.42858 -120.31745 -28.17318 64.19517 -89.03361 16.60418 9.15986 -7.02544 18.42743 8.83570 -2.00306 79.21659 1.77658 69.87027 1.60383 26.92794 97.28989 16.21844 12.56381 9.92604 15.81795 -1.02131 -30.35914 -23.72917 5.50152 71.48256 83.39980 0.00827 0.00855 -83.53271 -13.19676 -50.65783 -36.58173 17.29641 23.31695 40.97398 -19.80320 -46.35455 -23.51615 0.36969 -0.12953 2.15957 -15.62729 19.66224 
21.45213 90.69057 -39.29478 12.43783 4.13821 105.86236 -13.03785 25.15299 4.43701 0.00242 0.00754 -0.00390 -10.59589 32.78463 2.90066 1.41487 8.67675 -1.20428 -145.96051 -67.21510 -119.44227 -26.95009 63.57150 -89.89118 16.40143 9.00551 -6.91820 18.75066 9.05347 -1.82121 79.49621 1.34945 70.11472 1.04446 27.01430 97.99883 16.29683 12.46832 9.89225 15.33475 -0.64715 -28.86955 -23.95767 5.91622 70.82883 84.69055 0.00675 0.00648 -84.36980 -14.43417 -51.75705 -36.33200 16.59087 23.62999 41.24162 -17.77463 -45.26278 -37.60938 0.30767 0.01164 16.30343 -16.00335 17.89538 
21.33170 90.85075 -40.06131 12.63910 4.13458 105.79193 -13.07766 25.50860 4.16617 0.00255 0.00748 -0.00303 -10.70217 31.56146 4.33610 1.45835 8.81487 -0.90063 -144.86406 -66.96226 -118.74404 -25.94435 63.05615 -90.64443 16.34293 9.01353 -6.78654 18.98999 9.26824 -1.57048 79.81242 0.93658 70.39463 0.43553 27.09436 98.72579 16.36107 12.39769 9.88259 14.99230 -0.39791 -27.31441 -24.20716 6.43827 70.11202 85.83219 0.00538 0.00507 -85.17056 -15.52194 -52.79562 -35.99245 15.57192 23.77729 43.04761 -14.22288 -44.67760 -28.50373 -0.07791 0.18058 7.00623 -18.05757 15.99982 
21.19678 91.03565 -40.79299 12.82112 4.06059 105.73444 -12.99803 25.83648 3.86767 0.00255 0.00745 -0.00209 -10.82183 30.32677 5.77129 1.46641 8.92925 -0.54046 -143.98660 -66.65617 -118.22664 -25.09198 62.65658 -91.34128 16.25208 8.98880 -6.68175 19.14162 9.47589 -1.27116 80.16814 0.54261 70.71634 -0.20030 27.16540 99.46422 16.42655 12.28191 9.82988 14.77213 -0.24787 -25.73220 -24.44728 7.02570 69.33912 86.85282 0.00428 0.00391 -85.92438 -16.45262 -53.76386 -35.63979 14.25131 23.79280 45.34115 -9.94514 -43.41124 -36.18245 0.27881 -0.07000 14.27204 -20.92878 13.70357 
21.05737 91.23348 -41.46490 12.98489 3.91411 105.70717 -12.79672 26.13554 3.54218 0.00232 0.00742 -0.00113 -10.93818 29.10643 7.17465 1.43530 9.01913 -0.12912 -143.27263 -66.28290 -117.85252 -24.33410 62.36127 -92.01546 16.26754 9.04647 -6.54329 19.21658 9.67070 -0.94519 80.55627 0.17246 71.08242 -0.84286 27.22790 100.20573 16.48081 12.17535 9.77797 14.66049 -0.16997 -24.15767 -24.64186 7.64378 68.50752 87.76396 0.00326 0.00282 -86.61928 -17.21237 -54.64625 -35.28827 12.64359 23.69239 47.97002 -5.04773 -42.73056 -30.33265 -0.08548 0.16499 7.75226 -23.70570 10.99749 
